# xmcd CD database file
#
# Track frame offsets:
#	150
#	19808
#	49444
#	72624
#	90932
#	115631
#	145809
#	168431
#	196135
#	206770
#	228821
#	249590
#	271779
#	287718
#
# Disc length: 3957 seconds
#
# Revision: 3
# Processed by: cddbd v1.5.2PL0 Copyright (c) Steve Scherf et al.
# Submitted via: CDex 1.70beta2
#
DISCID=c40f730e
DTITLE=坂本 龍一 - /05
DYEAR=2005
DGENRE=New Age
TTITLE0=Tibetan Dance
TTITLE1=A Flower is not a Flower
TTITLE2=Amore
TTITLE3=Energy Flow
TTITLE4=Aqua
TTITLE5=The Last Emperor
TTITLE6=Happyend
TTITLE7=Thousand Knives
TTITLE8=Fountain
TTITLE9=The Sheltering Sky
TTITLE10=Lost Theme (from "FEMME FATALE")
TTITLE11=Shining Boy and Little Randy
TTITLE12=Reversing
TTITLE13=Rainforest
EXTD=YEAR: 2005
EXTT0=
EXTT1=
EXTT2=
EXTT3=
EXTT4=
EXTT5=
EXTT6=
EXTT7=
EXTT8=
EXTT9=
EXTT10=
EXTT11=
EXTT12=
EXTT13=
PLAYORDER=
